<svg xmlns="http://www.w3.org/2000/svg" viewBox="0 0 120 120">
  <rect width="120" height="120" rx="26" fill="#5BA88C" />
  <g transform="translate(60 60) scale(1.2) translate(-60 -60)">
    <path
      d="M34 34L39 39L44 34L49 39L54 34L59 39L64 34L69 39L74 34L79 39L84 34V86L79 81L74 86L69 81L64 86L59 81L54 86L49 81L44 86L39 81L34 86V34Z"
      fill="#FFFFFF"
    />
    <rect x="59" y="43" width="2" height="34" rx="1" fill="#1E3A4F" />
    <rect x="42" y="48" width="14" height="5" rx="0.75" fill="#5BA88C" />
    <rect x="42" y="58" width="14" height="5" rx="0.75" fill="#5BA88C" />
    <rect x="42" y="68" width="14" height="5" rx="0.75" fill="#5BA88C" />
    <rect x="64" y="48" width="14" height="5" rx="0.75" fill="#E8845C" />
    <rect x="64" y="58" width="14" height="5" rx="0.75" fill="#E8845C" />
    <rect x="64" y="68" width="14" height="5" rx="0.75" fill="#E8845C" />
  </g>
</svg>
